<?xml version="1.0" standalone="no"?>
<!DOCTYPE svg PUBLIC "-//W3C//DTD SVG 20010904//EN"
 "http://www.w3.org/TR/2001/REC-SVG-20010904/DTD/svg10.dtd">
<svg version="1.0" xmlns="http://www.w3.org/2000/svg"
 width="600.000000pt" height="360.000000pt" viewBox="0 0 600.000000 360.000000"
 preserveAspectRatio="xMidYMid meet">

<g transform="translate(0.000000,360.000000) scale(0.100000,-0.100000)"
fill="#000000" stroke="none">
<path d="M2740 1917 c0 -258 -1 -275 -19 -291 -17 -16 -24 -16 -55 -5 -40 14
-56 7 -40 -19 26 -41 85 -49 127 -17 30 22 37 77 37 322 l0 232 68 3 c61 3 67
5 70 26 3 21 1 22 -92 22 l-96 0 0 -273z"/>
<path d="M3081 2168 c-4 -13 -50 -140 -101 -283 -51 -143 -106 -279 -123 -303
-52 -77 -120 -103 -212 -83 -83 19 -135 86 -135 178 l0 32 63 3 c54 3 62 5 62
23 0 18 -8 20 -82 23 l-81 3 -6 -48 c-9 -64 17 -159 52 -197 41 -43 103 -67
176 -67 83 0 137 23 189 81 37 41 51 72 111 246 38 109 82 236 98 282 l30 83
66 -3 65 -3 113 -310 c62 -170 113 -313 114 -317 0 -5 -22 -8 -49 -8 l-50 0
-20 55 c-12 31 -21 60 -21 65 0 6 -39 10 -91 10 -80 0 -90 -2 -87 -17 4 -20
36 -31 94 -32 41 -1 41 -1 69 -66 l27 -65 100 0 c90 0 99 2 94 17 -4 9 -54
145 -111 302 -57 157 -115 315 -128 351 l-25 65 -96 3 c-92 3 -97 2 -105 -20z"/>
<path d="M3090 1788 c-90 -285 -91 -286 -132 -290 -25 -2 -33 -8 -33 -23 0
-23 29 -30 79 -21 l31 6 84 268 c47 147 87 273 89 280 3 7 -5 12 -20 12 -22 0
-28 -15 -98 -232z"/>
</g>
</svg>
